<svg width="40" height="40" fill="none" xmlns="http://www.w3.org/2000/svg"><path d="M15.995 24.984c-2.25-3.829-2.255-7.809-2.026-9.661-5.27 2.507-8.422 7.89-6.3 12.716 2.498.249 6.002-.51 8.326-3.055Z" fill="#415167"/><path d="M16.574 25.91c-2.052 2.177-5.577 3.407-8.268 3.244 2.457 3.548 8.991 5.107 14.877 1.685-2.52-.612-4.897-2.4-6.609-4.929Z" fill="#415167"/><path d="M22.731 17.96c-3.52-3.899-3.812-7.62-3.328-10.062-3.637 2.085-5.413 7.43-3.988 12.878 1.59 6.228 7.242 10.94 12.543 8.568.165-1.75-.053-5.676-5.227-11.384Z" fill="#415167"/><path d="M32.525 16.19C30.91 9.982 25.512 5.693 20.6 7.35c-.718 2.334-.617 6.087 2.935 9.91 1.611 1.896 5.594 6.386 5.52 11.47 3.264-2.295 4.79-7.364 3.471-12.542Z" fill="#415167"/></svg>