<svg width="40" height="40" fill="none" xmlns="http://www.w3.org/2000/svg"><path d="M19.02 7.394c-.161-.277-.508-.412-.774-.44a.877.877 0 0 0-.76.467l-3.111 5.824 1.632 1.871 1.508-2.433c.321-.517 1.169-.517 1.49 0l1.509 2.433 1.771-2.079-3.266-5.643Z" fill="#415167"/><path d="m23.75 15.596-.517-.894-2.081 2.528c-.172.238-.42.393-.742.363a.876.876 0 0 1-.712-.416l-1.453-2.346-1.453 2.346a.876.876 0 0 1-.712.416h-.033a.876.876 0 0 1-.709-.363l-1.894-2.269-8.34 15.525a.895.895 0 0 0 .02.875.877.877 0 0 0 .755.433h9.9a2.676 2.676 0 0 1 .17-2.196l7.801-14.002Zm3.2.707c-.311-.558-1.225-.558-1.538 0l-1.838 3.284 2.608 2.862 2.607-2.863-1.838-3.283Z" fill="#415167"/><path d="m34.887 30.472-5.226-9.265-2.833 3.176a.878.878 0 0 1-1.351 0l-2.833-3.175-5.167 9.265a.891.891 0 0 0 .007.882.877.877 0 0 0 .758.439h15.879a.88.88 0 0 0 .759-.44.891.891 0 0 0 .007-.882Z" fill="#415167"/></svg>